<svg xmlns="http://www.w3.org/2000/svg" width="217.986" height="61.223" viewBox="0 0 217.986 61.223"><g id="Group_2544" data-name="Group 2544" transform="translate(227.693 219.653)"><g id="Group_1749" data-name="Group 1749"><path id="Path_332" data-name="Path 332" d="M-129.705-194.33a8.22,8.22,0,0,0-3.028-3.014,8.484,8.484,0,0,0-4.292-1.1,8.541,8.541,0,0,0-4.34,1.116,8.256,8.256,0,0,0-3.041,3.042,8.592,8.592,0,0,0-1.118,4.369,8.717,8.717,0,0,0,1.086,4.336,8.174,8.174,0,0,0,2.952,3.043,8.088,8.088,0,0,0,4.224,1.119,7.826,7.826,0,0,0,3.7-.876,7.621,7.621,0,0,0,2.212-1.731v7.99a1.35,1.35,0,0,0,.4,1.027,1.4,1.4,0,0,0,1,.383,1.4,1.4,0,0,0,1-.382,1.364,1.364,0,0,0,.405-1.028v-14.006A8.849,8.849,0,0,0-129.705-194.33Zm-1.581,4.413a6.155,6.155,0,0,1-.754,3.036,5.587,5.587,0,0,1-2.044,2.116,5.681,5.681,0,0,1-2.941.765,5.7,5.7,0,0,1-2.929-.766,5.656,5.656,0,0,1-2.073-2.117,6.051,6.051,0,0,1-.768-3.034,6.033,6.033,0,0,1,.768-3.049,5.8,5.8,0,0,1,2.075-2.119,5.617,5.617,0,0,1,2.927-.78,5.6,5.6,0,0,1,2.939.779,5.739,5.739,0,0,1,2.047,2.118A6.152,6.152,0,0,1-131.286-189.917Z" fill="#2a2e30"></path><path id="Path_333" data-name="Path 333" d="M-89.882-194.286a8.3,8.3,0,0,0-3.028-3.042,8.453,8.453,0,0,0-4.323-1.118,8.541,8.541,0,0,0-4.339,1.118,8.261,8.261,0,0,0-3.043,3.042,8.6,8.6,0,0,0-1.117,4.369,8.712,8.712,0,0,0,1.086,4.336,8.169,8.169,0,0,0,2.953,3.043,8.081,8.081,0,0,0,4.222,1.119,7.837,7.837,0,0,0,4-1.028,7.609,7.609,0,0,0,1.919-1.578v1.078a1.327,1.327,0,0,0,.4,1,1.4,1.4,0,0,0,1,.381,1.4,1.4,0,0,0,1-.381,1.326,1.326,0,0,0,.4-1v-7.166h0A8.775,8.775,0,0,0-89.882-194.286Zm-4.41,9.521a5.681,5.681,0,0,1-2.941.765,5.692,5.692,0,0,1-2.928-.766,5.652,5.652,0,0,1-2.074-2.117,6.057,6.057,0,0,1-.768-3.034,6.048,6.048,0,0,1,.767-3.049,5.8,5.8,0,0,1,2.076-2.119,5.615,5.615,0,0,1,2.927-.78,5.589,5.589,0,0,1,2.939.78,5.74,5.74,0,0,1,2.047,2.118,6.132,6.132,0,0,1,.753,3.05,6.144,6.144,0,0,1-.754,3.036A5.581,5.581,0,0,1-94.292-184.765Z" fill="#2a2e30"></path><path id="Path_334" data-name="Path 334" d="M-57.863-184.355h-.8a2.707,2.707,0,0,1-2.1-.883,3.288,3.288,0,0,1-.822-2.307v-7.668h3.1a1.293,1.293,0,0,0,.916-.35,1.17,1.17,0,0,0,.374-.879,1.2,1.2,0,0,0-.375-.911,1.289,1.289,0,0,0-.915-.35h-3.1v-4.346a1.371,1.371,0,0,0-.4-1.008,1.373,1.373,0,0,0-1.008-.4,1.326,1.326,0,0,0-1,.4,1.411,1.411,0,0,0-.381,1.005v4.346h-1.676a1.282,1.282,0,0,0-.915.35,1.205,1.205,0,0,0-.375.911,1.169,1.169,0,0,0,.375.879,1.282,1.282,0,0,0,.915.35h1.676v7.668a6.288,6.288,0,0,0,.742,3.073,5.625,5.625,0,0,0,2.035,2.128,5.617,5.617,0,0,0,2.932.776h.624a1.546,1.546,0,0,0,1.055-.374,1.282,1.282,0,0,0,.443-1.005,1.436,1.436,0,0,0-.363-1A1.24,1.24,0,0,0-57.863-184.355Z" fill="#2a2e30"></path><path id="Path_335" data-name="Path 335" d="M-110.379-198.3a1.378,1.378,0,0,0-1.01.4,1.332,1.332,0,0,0-.4.977v7.713a5.694,5.694,0,0,1-.662,2.9,4.212,4.212,0,0,1-1.792,1.681,5.751,5.751,0,0,1-2.378.543,5.754,5.754,0,0,1-2.378-.543,4.212,4.212,0,0,1-1.792-1.681,5.694,5.694,0,0,1-.662-2.9v-7.713a1.331,1.331,0,0,0-.4-.977,1.373,1.373,0,0,0-1.008-.4,1.34,1.34,0,0,0-.98.4,1.332,1.332,0,0,0-.4.977v7.713a8.485,8.485,0,0,0,1,4.248,6.681,6.681,0,0,0,2.726,2.662,8.215,8.215,0,0,0,3.884.906h.025a8.216,8.216,0,0,0,3.885-.906A6.687,6.687,0,0,0-110-184.957a8.48,8.48,0,0,0,1-4.248v-7.713a1.332,1.332,0,0,0-.4-.977A1.337,1.337,0,0,0-110.379-198.3Z" fill="#2a2e30"></path><path id="Path_336" data-name="Path 336" d="M-38.828-198.3a1.373,1.373,0,0,0-1.008.4,1.331,1.331,0,0,0-.4.977v7.713a5.694,5.694,0,0,1-.662,2.9,4.209,4.209,0,0,1-1.793,1.681,5.749,5.749,0,0,1-2.377.543,5.75,5.75,0,0,1-2.378-.543,4.206,4.206,0,0,1-1.792-1.681,5.684,5.684,0,0,1-.662-2.9v-7.713a1.332,1.332,0,0,0-.4-.977,1.37,1.37,0,0,0-1.008-.4,1.338,1.338,0,0,0-.979.4,1.329,1.329,0,0,0-.4.977v7.713a8.48,8.48,0,0,0,1,4.248,6.685,6.685,0,0,0,2.725,2.662,8.226,8.226,0,0,0,3.886.906h.023a8.209,8.209,0,0,0,3.884-.906,6.68,6.68,0,0,0,2.728-2.662,8.48,8.48,0,0,0,1-4.248v-7.713a1.329,1.329,0,0,0-.4-.977A1.333,1.333,0,0,0-38.828-198.3Z" fill="#2a2e30"></path><path id="Path_337" data-name="Path 337" d="M-73.059-197.831a8.236,8.236,0,0,0-3.885-.9h-.025a8.226,8.226,0,0,0-3.884.9,6.7,6.7,0,0,0-2.727,2.664,8.491,8.491,0,0,0-1,4.248v7.712a1.333,1.333,0,0,0,.4.978,1.337,1.337,0,0,0,.979.4,1.375,1.375,0,0,0,1.009-.4,1.333,1.333,0,0,0,.4-.978v-7.712a5.669,5.669,0,0,1,.663-2.9,4.213,4.213,0,0,1,1.792-1.681,5.76,5.76,0,0,1,2.378-.545,5.762,5.762,0,0,1,2.377.545,4.212,4.212,0,0,1,1.792,1.681,5.669,5.669,0,0,1,.663,2.9v7.712a1.329,1.329,0,0,0,.4.978,1.369,1.369,0,0,0,1.007.4,1.337,1.337,0,0,0,.979-.4,1.333,1.333,0,0,0,.4-.978v-7.712a8.48,8.48,0,0,0-1-4.248A6.69,6.69,0,0,0-73.059-197.831Z" fill="#2a2e30"></path><path id="Path_338" data-name="Path 338" d="M-10.491-195.162a5.911,5.911,0,0,0-2.2-2.445,6.076,6.076,0,0,0-3.231-.867c-.124,0-.242.015-.363.021s-.224-.021-.34-.021a6.078,6.078,0,0,0-3.232.867,5.728,5.728,0,0,0-1.592,1.5,5.751,5.751,0,0,0-1.594-1.5,6.07,6.07,0,0,0-3.23-.867c-.117,0-.227.015-.341.021s-.239-.021-.364-.021a6.076,6.076,0,0,0-3.231.867,5.909,5.909,0,0,0-2.2,2.445,8.137,8.137,0,0,0-.783,3.673v8.542a1.354,1.354,0,0,0,.385,1,1.352,1.352,0,0,0,.993.384,1.4,1.4,0,0,0,1-.381,1.328,1.328,0,0,0,.405-1v-8.542a4.625,4.625,0,0,1,1.032-3.17c.034-.038.074-.064.11-.1a3.772,3.772,0,0,1,2.634-1.036,3.675,3.675,0,0,1,2.715,1.142,3.622,3.622,0,0,1,.536.752,5.185,5.185,0,0,1,.528,2.412v8.542a1.351,1.351,0,0,0,.224.734,1.265,1.265,0,0,0,.17.26,1.344,1.344,0,0,0,.993.385l.011,0,.011,0a1.348,1.348,0,0,0,.994-.385,1.278,1.278,0,0,0,.176-.27,1.354,1.354,0,0,0,.217-.724v-8.542a5.2,5.2,0,0,1,.521-2.4,3.659,3.659,0,0,1,.543-.767,3.676,3.676,0,0,1,2.714-1.142,3.834,3.834,0,0,1,2.628,1.029c.038.039.08.066.117.107a4.615,4.615,0,0,1,1.033,3.17v8.542a1.324,1.324,0,0,0,.405,1,1.392,1.392,0,0,0,1,.381,1.351,1.351,0,0,0,.995-.385,1.361,1.361,0,0,0,.385-.994v-8.542A8.155,8.155,0,0,0-10.491-195.162Z" fill="#2a2e30"></path></g><path id="Path_339" data-name="Path 339" d="M-197.08-219.653h0a30.645,30.645,0,0,0-30.61,30.61,30.646,30.646,0,0,0,30.611,30.612,30.406,30.406,0,0,0,14.239-3.536,10.167,10.167,0,0,1-3.25-7.453,10.2,10.2,0,0,1,10.2-10.2,10.159,10.159,0,0,1,6.9,2.7,30.423,30.423,0,0,0,2.515-12.122v0a30.645,30.645,0,0,0-30.609-30.608m0,43.954a13.359,13.359,0,0,1-13.343-13.344,13.359,13.359,0,0,1,13.343-13.343,13.359,13.359,0,0,1,13.343,13.343A13.359,13.359,0,0,1-197.082-175.7" fill="#262626"></path><path id="Path_340" data-name="Path 340" d="M-173.02-196.795a8.171,8.171,0,0,0-2.618-.432,8.187,8.187,0,0,0-7.752,5.568,8.182,8.182,0,0,0,5.136,10.369,8.183,8.183,0,0,0,10.37-5.135,8.183,8.183,0,0,0-5.136-10.37" transform="translate(0 20)" fill="#d82b72"></path></g></svg>